<?xml version="1.0" encoding="UTF-8" standalone="no"?>
<!-- Created with Inkscape (http://www.inkscape.org/) -->

<svg
   width="450mm"
   height="100mm"
   viewBox="0 0 450 100"
   version="1.1"
   id="svg1"
   sodipodi:docname="espejote-white.svg"
   xml:space="preserve"
   inkscape:version="1.4.2 (ebf0e940, 2025-05-08)"
   xmlns:inkscape="http://www.inkscape.org/namespaces/inkscape"
   xmlns:sodipodi="http://sodipodi.sourceforge.net/DTD/sodipodi-0.dtd"
   xmlns:xlink="http://www.w3.org/1999/xlink"
   xmlns="http://www.w3.org/2000/svg"
   xmlns:svg="http://www.w3.org/2000/svg"><sodipodi:namedview
     id="namedview1"
     pagecolor="#000000"
     bordercolor="#000000"
     borderopacity="0.25"
     inkscape:showpageshadow="2"
     inkscape:pageopacity="0.0"
     inkscape:pagecheckerboard="0"
     inkscape:deskcolor="#d1d1d1"
     inkscape:document-units="mm"
     inkscape:zoom="0.93411798"
     inkscape:cx="416.43562"
     inkscape:cy="73.331208"
     inkscape:window-width="2560"
     inkscape:window-height="1440"
     inkscape:window-x="1512"
     inkscape:window-y="0"
     inkscape:window-maximized="0"
     inkscape:current-layer="layer1" /><defs
     id="defs1"><linearGradient
       id="linearGradient3"
       inkscape:collect="always"><stop
         style="stop-color:#87aade;stop-opacity:1;"
         offset="0.31051874"
         id="stop15" /><stop
         style="stop-color:#bbe1f0;stop-opacity:1;"
         offset="0.49902344"
         id="stop17" /><stop
         style="stop-color:#77d8f6;stop-opacity:1;"
         offset="0.49902344"
         id="stop18" /><stop
         style="stop-color:#5185e0;stop-opacity:1;"
         offset="0.82348478"
         id="stop5" /></linearGradient><inkscape:perspective
       sodipodi:type="inkscape:persp3d"
       inkscape:vp_x="10.917839 : 4.7963163 : 1"
       inkscape:vp_y="0 : 1000 : 0"
       inkscape:vp_z="108.04472 : 21.268846 : 1"
       inkscape:persp3d-origin="50.000002 : 33.333333 : 1"
       id="perspective76" /><inkscape:path-effect
       effect="fillet_chamfer"
       id="path-effect76"
       is_visible="true"
       lpeversion="1"
       nodesatellites_param="F,0,0,1,0,0.52624635,0,1 @ F,0,1,1,0,0.52624635,0,1 @ F,0,1,1,0,0.52624635,0,1 @ F,0,1,1,0,0.52624635,0,1 @ F,0,1,1,0,0.52624635,0,1 @ F,0,1,1,0,0.52624635,0,1 @ F,0,1,1,0,0.52624635,0,1 @ F,0,1,1,0,0.52624635,0,1 @ F,0,1,1,0,0.52624635,0,1 @ F,0,1,1,0,0.52624635,0,1 @ F,0,1,1,0,0.52624635,0,1 @ F,0,1,1,0,0.52624635,0,1"
       radius="0"
       unit="px"
       method="auto"
       mode="F"
       chamfer_steps="1"
       flexible="false"
       use_knot_distance="true"
       apply_no_radius="true"
       apply_with_radius="true"
       only_selected="false"
       hide_knots="false" /><linearGradient
       id="swatch1"
       inkscape:swatch="solid"><stop
         style="stop-color:#87aade;stop-opacity:1;"
         offset="0"
         id="stop1" /></linearGradient><filter
       inkscape:label="Blur Double"
       inkscape:menu="Blurs"
       inkscape:menu-tooltip="Overlays two copies with different blur amounts and modifiable blend and composite"
       style="color-interpolation-filters:sRGB"
       id="filter76"
       x="-0.22801316"
       y="-0.23499409"
       width="1.4560263"
       height="1.4699882"><feGaussianBlur
         stdDeviation="56.774193548387096"
         result="fbSourceGraphic"
         id="feGaussianBlur75" /><feGaussianBlur
         stdDeviation="10"
         in="SourceGraphic"
         result="result1"
         id="feGaussianBlur76" /><feComposite
         in2="result1"
         operator="arithmetic"
         in="fbSourceGraphic"
         k2="0.5"
         k3="0.5"
         result="result2"
         id="feComposite76"
         k1="0"
         k4="0" /><feBlend
         in2="fbSourceGraphic"
         mode="normal"
         result="result3"
         id="feBlend76" /></filter><filter
       inkscape:label="Blur Double"
       inkscape:menu="Blurs"
       inkscape:menu-tooltip="Overlays two copies with different blur amounts and modifiable blend and composite"
       style="color-interpolation-filters:sRGB"
       id="filter76-4"
       x="-0.22801316"
       y="-0.23499409"
       width="1.4560263"
       height="1.4699882"><feGaussianBlur
         stdDeviation="56.774193548387096"
         result="fbSourceGraphic"
         id="feGaussianBlur75-8" /><feGaussianBlur
         stdDeviation="10"
         in="SourceGraphic"
         result="result1"
         id="feGaussianBlur76-3" /><feComposite
         in2="result1"
         operator="arithmetic"
         in="fbSourceGraphic"
         k2="0.5"
         k3="0.5"
         result="result2"
         id="feComposite76-9"
         k1="0"
         k4="0" /><feBlend
         in2="fbSourceGraphic"
         mode="normal"
         result="result3"
         id="feBlend76-0" /></filter><linearGradient
       inkscape:collect="always"
       xlink:href="#linearGradient3"
       id="linearGradient4"
       x1="15.566735"
       y1="27.490234"
       x2="84.232979"
       y2="70.50692"
       gradientUnits="userSpaceOnUse" /><filter
       style="color-interpolation-filters:sRGB;"
       inkscape:label="Drop Shadow"
       id="filter35"
       x="-0.12000112"
       y="-0.12000112"
       width="1.2400022"
       height="1.2400022"><feFlood
         result="flood"
         in="SourceGraphic"
         flood-opacity="0.247059"
         flood-color="rgb(0,0,0)"
         id="feFlood34" /><feGaussianBlur
         result="blur"
         in="SourceGraphic"
         stdDeviation="1.000000"
         id="feGaussianBlur34" /><feOffset
         result="offset"
         in="blur"
         dx="0.000000"
         dy="0.000000"
         id="feOffset34" /><feComposite
         result="comp1"
         operator="out"
         in="flood"
         in2="offset"
         id="feComposite34" /><feComposite
         result="comp2"
         operator="atop"
         in="comp1"
         in2="SourceGraphic"
         id="feComposite35" /></filter><filter
       style="color-interpolation-filters:sRGB;"
       inkscape:label="Drop Shadow"
       id="filter37"
       x="-0.34285714"
       y="-0.34285714"
       width="1.6857143"
       height="1.6857143"><feFlood
         result="flood"
         in="SourceGraphic"
         flood-opacity="0.247059"
         flood-color="rgb(0,0,0)"
         id="feFlood35" /><feGaussianBlur
         result="blur"
         in="SourceGraphic"
         stdDeviation="1.000000"
         id="feGaussianBlur35" /><feOffset
         result="offset"
         in="blur"
         dx="0.000000"
         dy="0.000000"
         id="feOffset35" /><feComposite
         result="comp1"
         operator="out"
         in="flood"
         in2="offset"
         id="feComposite36" /><feComposite
         result="comp2"
         operator="atop"
         in="comp1"
         in2="SourceGraphic"
         id="feComposite37" /></filter><filter
       style="color-interpolation-filters:sRGB;"
       inkscape:label="Drop Shadow"
       id="filter39"
       x="-0.34285714"
       y="-0.34285714"
       width="1.6857143"
       height="1.6857143"><feFlood
         result="flood"
         in="SourceGraphic"
         flood-opacity="0.247059"
         flood-color="rgb(0,0,0)"
         id="feFlood37" /><feGaussianBlur
         result="blur"
         in="SourceGraphic"
         stdDeviation="1.000000"
         id="feGaussianBlur37" /><feOffset
         result="offset"
         in="blur"
         dx="0.000000"
         dy="0.000000"
         id="feOffset37" /><feComposite
         result="comp1"
         operator="out"
         in="flood"
         in2="offset"
         id="feComposite38" /><feComposite
         result="comp2"
         operator="atop"
         in="comp1"
         in2="SourceGraphic"
         id="feComposite39" /></filter></defs><g
     inkscape:label="Layer 1"
     inkscape:groupmode="layer"
     id="layer1"><rect
       style="mix-blend-mode:normal;fill:url(#linearGradient4);fill-opacity:1;fill-rule:nonzero;stroke-width:0.265;stroke-dasharray:none"
       id="rect1"
       width="65"
       height="65"
       x="17.5"
       y="17.5"
       ry="7.4801769"
       rx="7.4801769" /><g
       id="g76"
       transform="matrix(1.9804529,0,0,1.9804529,1.813269,78.871345)"><path
         id="rect76"
         style="fill:#ffffff;fill-opacity:1;fill-rule:nonzero;stroke-width:0.264999;stroke-dasharray:none;filter:url(#filter35)"
         d="m 17.831351,-24.051813 0,5.947081 a 0.52624635,0.52624635 135 0 1 -0.526246,0.526246 h -5.947598 a 0.52624635,0.52624635 135 0 0 -0.526246,0.526246 v 4.947658 a 0.52624635,0.52624635 45 0 0 0.526246,0.526246 h 5.947598 a 0.52624635,0.52624635 45 0 1 0.526246,0.526246 v 5.9475975 a 0.52624635,0.52624635 45 0 0 0.526246,0.5262463 h 4.947658 a 0.52624635,0.52624635 135 0 0 0.526246,-0.5262463 l 0,-5.9475975 a 0.52624635,0.52624635 135 0 1 0.526246,-0.526246 h 5.947081 a 0.52624635,0.52624635 135 0 0 0.526246,-0.526246 v -4.947658 a 0.52624635,0.52624635 45 0 0 -0.526246,-0.526246 h -5.947081 a 0.52624635,0.52624635 45 0 1 -0.526246,-0.526246 v -5.947081 a 0.52624635,0.52624635 45 0 0 -0.526246,-0.526246 l -4.947658,0 a 0.52624635,0.52624635 135 0 0 -0.526246,0.526246 z"
         inkscape:path-effect="#path-effect76"
         inkscape:original-d="m 17.831351,-24.578059 v 6.999573 h -7.00009 v 6.00015 h 7.00009 v 7.0000898 h 6.00015 v -7.0000898 h 6.999573 v -6.00015 h -6.999573 v -6.999573 z" /><circle
         style="fill:#ffffff;fill-opacity:1;fill-rule:nonzero;stroke-width:0.264999;stroke-dasharray:none;filter:url(#filter39)"
         id="path76"
         cx="34.331074"
         cy="-21.078058"
         r="3.5" /><circle
         style="fill:#ffffff;fill-opacity:1;fill-rule:nonzero;stroke-width:0.264999;stroke-dasharray:none;filter:url(#filter37)"
         id="path76-2"
         cx="34.331074"
         cy="-8.0782461"
         r="3.5" /></g><path
       style="font-weight:bold;font-size:70.5556px;font-family:'Source Code Pro';-inkscape-font-specification:'Source Code Pro, Bold';stroke-width:0.265;fill:#ffffff;fill-opacity:1"
       d="m 100.00006,69.720291 h 31.18558 v -8.748895 h -20.74335 v -10.58334 h 17.0039 v -8.678339 h -17.0039 v -9.242784 h 20.0378 v -8.748895 h -30.48003 z m 54.50898,0.846667 c 11.21834,0 17.21556,-4.938892 17.21556,-11.288896 0,-5.715004 -2.96333,-8.748895 -13.75834,-11.218341 -5.92667,-1.340556 -8.11389,-1.76389 -8.11389,-3.739447 0,-1.622779 1.62277,-2.751668 4.86833,-2.751668 3.88056,0 7.90223,1.199445 11.43001,3.316113 l 4.65667,-6.208893 c -3.66889,-2.328335 -8.89001,-4.797781 -15.16946,-4.797781 -9.94834,0 -16.08667,4.445003 -16.08667,10.936118 0,5.432782 3.81,8.890006 13.33501,10.936119 6.84389,1.481667 8.60778,2.187223 8.60778,4.16278 0,1.693335 -1.76389,2.963336 -5.57389,2.963336 -5.00945,0 -9.80723,-1.481668 -14.11112,-4.162781 l -4.44501,6.491116 c 4.44501,2.963335 10.86557,5.362225 17.14502,5.362225 z m 25.69464,12.135564 h 10.37167 V 72.47196 l -0.49389,-5.715004 h 0.28222 c 2.46945,2.469446 5.50334,3.810002 8.60779,3.810002 7.83167,0 15.16945,-6.914449 15.16945,-18.908901 0,-10.795008 -5.29167,-17.780012 -14.04056,-17.780012 -3.73945,0 -7.62001,1.834445 -10.44223,4.374447 h -0.21167 l -0.77611,-3.52778 h -8.46667 z m 16.3689,-20.602236 c -1.76389,0 -4.02167,-0.635 -5.99723,-2.328335 V 45.590275 c 2.18722,-2.257779 4.23334,-3.245558 6.49112,-3.245558 4.37444,0 6.42055,3.175002 6.42055,9.454451 0,7.196671 -3.03389,10.301118 -6.91444,10.301118 z m 41.56456,-20.320014 c 4.02167,0 6.42056,2.25778 6.91445,6.561671 H 230.0938 c 1.05833,-4.374447 3.95111,-6.561671 8.04334,-6.561671 z m 0.84666,28.786686 c 4.65667,0 9.87779,-1.552223 13.89946,-4.092225 l -3.45723,-6.279448 c -3.10444,1.622779 -5.85611,2.469446 -9.03111,2.469446 -5.71501,0 -9.45446,-2.257779 -10.44223,-7.337783 h 23.84779 c 0.14111,-0.846667 0.49389,-2.751668 0.49389,-4.65667 0,-9.525006 -5.715,-16.792233 -16.51001,-16.792233 -9.3839,0 -18.20335,6.843893 -18.20335,18.344457 0,11.641674 8.46668,18.344456 19.40279,18.344456 z m 30.12947,12.982231 c 12.70001,0 16.22779,-7.408338 16.22779,-15.945566 V 34.724712 h -24.41224 v 8.113894 h 14.04056 v 25.188351 c 0,5.080003 -1.48166,7.408338 -6.49111,7.408338 -2.04611,0 -4.30389,-0.423334 -7.12612,-1.693334 l -3.03389,7.408338 c 3.03389,1.411112 6.49112,2.39889 10.79501,2.39889 z m 10.58334,-54.327814 c 4.02167,0 6.91445,-2.469446 6.91445,-6.279449 0,-3.810002 -2.89278,-6.491115 -6.91445,-6.491115 -4.02167,0 -6.91445,2.681113 -6.91445,6.491115 0,3.810003 2.89278,6.279449 6.91445,6.279449 z m 30.46338,41.345583 c 9.24278,0 17.85057,-6.702782 17.85057,-18.344456 0,-11.641675 -8.60779,-18.344457 -17.85057,-18.344457 -9.24278,0 -17.85057,6.702782 -17.85057,18.344457 0,11.641674 8.60779,18.344456 17.85057,18.344456 z m 0,-8.396116 c -4.79778,0 -7.19667,-3.880559 -7.19667,-9.94834 0,-6.067782 2.39889,-9.94834 7.19667,-9.94834 4.79778,0 7.19667,3.880558 7.19667,9.94834 0,6.067781 -2.39889,9.94834 -7.19667,9.94834 z m 45.86336,8.396116 c 4.65667,0 8.32556,-0.987778 11.43001,-1.905001 l -1.83445,-7.478894 c -2.11667,0.705556 -4.30389,1.270001 -6.91445,1.270001 -5.15056,0 -7.40834,-2.046112 -7.40834,-7.337783 V 42.838606 H 366.1128 V 34.724712 H 351.29612 V 24.00026 h -8.53723 l -1.34055,10.724452 -9.31334,0.423334 v 7.69056 h 8.81945 v 12.347231 c 0,9.172228 3.95111,15.381121 15.0989,15.381121 z m 35.17674,-28.786686 c 4.02167,0 6.42056,2.25778 6.91445,6.561671 h -14.95779 c 1.05833,-4.374447 3.95111,-6.561671 8.04334,-6.561671 z m 0.84666,28.786686 c 4.65667,0 9.87779,-1.552223 13.89946,-4.092225 l -3.45723,-6.279448 c -3.10444,1.622779 -5.85611,2.469446 -9.03111,2.469446 -5.71501,0 -9.45445,-2.257779 -10.44223,-7.337783 h 23.84779 c 0.14111,-0.846667 0.49389,-2.751668 0.49389,-4.65667 0,-9.525006 -5.715,-16.792233 -16.51001,-16.792233 -9.3839,0 -18.20335,6.843893 -18.20335,18.344457 0,11.641674 8.46668,18.344456 19.40279,18.344456 z"
       id="text88"
       aria-label="Espejote" /></g></svg>
