<?xml version="1.0" encoding="UTF-8" standalone="no"?>
<!-- Created with Inkscape (http://www.inkscape.org/) -->

<svg
   width="400mm"
   height="200mm"
   viewBox="0 0 400 200"
   version="1.1"
   id="svg1"
   sodipodi:docname="social-share.svg"
   xml:space="preserve"
   inkscape:version="1.4.2 (ebf0e940, 2025-05-08)"
   inkscape:export-filename="social-share.png"
   inkscape:export-xdpi="76.199997"
   inkscape:export-ydpi="76.199997"
   xmlns:inkscape="http://www.inkscape.org/namespaces/inkscape"
   xmlns:sodipodi="http://sodipodi.sourceforge.net/DTD/sodipodi-0.dtd"
   xmlns:xlink="http://www.w3.org/1999/xlink"
   xmlns="http://www.w3.org/2000/svg"
   xmlns:svg="http://www.w3.org/2000/svg"><sodipodi:namedview
     id="namedview1"
     pagecolor="#ffffff"
     bordercolor="#000000"
     borderopacity="0.25"
     inkscape:showpageshadow="2"
     inkscape:pageopacity="0.0"
     inkscape:pagecheckerboard="0"
     inkscape:deskcolor="#d1d1d1"
     inkscape:document-units="mm"
     inkscape:zoom="0.33026058"
     inkscape:cx="429.96352"
     inkscape:cy="131.71418"
     inkscape:window-width="1872"
     inkscape:window-height="1368"
     inkscape:window-x="3212"
     inkscape:window-y="77"
     inkscape:window-maximized="0"
     inkscape:current-layer="svg1"
     inkscape:export-bgcolor="#ffffffff" /><defs
     id="defs1"><linearGradient
       id="linearGradient7"
       inkscape:collect="always"><stop
         style="stop-color:#88cade;stop-opacity:1;"
         offset="0"
         id="stop7" /><stop
         style="stop-color:#a687de;stop-opacity:1;"
         offset="0.80000001"
         id="stop10" /><stop
         style="stop-color:#326ce5;stop-opacity:1;"
         offset="1"
         id="stop8" /></linearGradient><rect
       x="-86.295495"
       y="-195.30033"
       width="62.072198"
       height="80.23967"
       id="rect6" /><inkscape:perspective
       sodipodi:type="inkscape:persp3d"
       inkscape:vp_x="10.917839 : 104.79632 : 1"
       inkscape:vp_y="0 : 1000 : 0"
       inkscape:vp_z="108.04472 : 121.26884 : 1"
       inkscape:persp3d-origin="50 : 133.33333 : 1"
       id="perspective76" /><inkscape:path-effect
       effect="fillet_chamfer"
       id="path-effect76"
       is_visible="true"
       lpeversion="1"
       nodesatellites_param="F,0,0,1,0,0.52624635,0,1 @ F,0,1,1,0,0.52624635,0,1 @ F,0,1,1,0,0.52624635,0,1 @ F,0,1,1,0,0.52624635,0,1 @ F,0,1,1,0,0.52624635,0,1 @ F,0,1,1,0,0.52624635,0,1 @ F,0,1,1,0,0.52624635,0,1 @ F,0,1,1,0,0.52624635,0,1 @ F,0,1,1,0,0.52624635,0,1 @ F,0,1,1,0,0.52624635,0,1 @ F,0,1,1,0,0.52624635,0,1 @ F,0,1,1,0,0.52624635,0,1"
       radius="0"
       unit="px"
       method="auto"
       mode="F"
       chamfer_steps="1"
       flexible="false"
       use_knot_distance="true"
       apply_no_radius="true"
       apply_with_radius="true"
       only_selected="false"
       hide_knots="false" /><linearGradient
       id="linearGradient4"
       inkscape:collect="always"><stop
         style="stop-color:#87cdde;stop-opacity:1;"
         offset="0"
         id="stop4" /><stop
         style="stop-color:#a687de;stop-opacity:1;"
         offset="1"
         id="stop5" /></linearGradient><linearGradient
       id="swatch1"
       inkscape:swatch="solid"><stop
         style="stop-color:#87aade;stop-opacity:1;"
         offset="0"
         id="stop1" /></linearGradient><radialGradient
       inkscape:collect="always"
       xlink:href="#linearGradient4"
       id="radialGradient5"
       cx="31.686747"
       cy="33.493977"
       fx="31.686747"
       fy="33.493977"
       r="32.5"
       gradientUnits="userSpaceOnUse"
       spreadMethod="pad"
       gradientTransform="matrix(0.62986904,0,0,0.62986904,8.9772914,19.638143)" /><filter
       inkscape:label="Blur Double"
       inkscape:menu="Blurs"
       inkscape:menu-tooltip="Overlays two copies with different blur amounts and modifiable blend and composite"
       style="color-interpolation-filters:sRGB"
       id="filter76"
       x="-0.22801316"
       y="-0.23499409"
       width="1.4560263"
       height="1.4699882"><feGaussianBlur
         stdDeviation="56.774193548387096"
         result="fbSourceGraphic"
         id="feGaussianBlur75" /><feGaussianBlur
         stdDeviation="10"
         in="SourceGraphic"
         result="result1"
         id="feGaussianBlur76" /><feComposite
         in2="result1"
         operator="arithmetic"
         in="fbSourceGraphic"
         k2="0.5"
         k3="0.5"
         result="result2"
         id="feComposite76"
         k1="0"
         k4="0" /><feBlend
         in2="fbSourceGraphic"
         mode="normal"
         result="result3"
         id="feBlend76" /></filter><linearGradient
       inkscape:collect="always"
       xlink:href="#linearGradient7"
       id="linearGradient8"
       x1="0"
       y1="190"
       x2="400"
       y2="190"
       gradientUnits="userSpaceOnUse" /><linearGradient
       inkscape:collect="always"
       xlink:href="#linearGradient3"
       id="linearGradient4-5"
       x1="2.5649464"
       y1="48.926144"
       x2="95.672554"
       y2="54.278389"
       gradientUnits="userSpaceOnUse"
       gradientTransform="matrix(6.1538462,0,0,0.30769231,-107.68897,174.61538)" /><linearGradient
       id="linearGradient3"
       inkscape:collect="always"><stop
         style="stop-color:#87aade;stop-opacity:1;"
         offset="0.31051874"
         id="stop15" /><stop
         style="stop-color:#bbe1f0;stop-opacity:1;"
         offset="0.49902344"
         id="stop17" /><stop
         style="stop-color:#77d8f6;stop-opacity:1;"
         offset="0.49902344"
         id="stop18" /><stop
         style="stop-color:#5185e0;stop-opacity:1;"
         offset="0.82348478"
         id="stop5-2" /></linearGradient></defs><g
     inkscape:label="Layer 1"
     inkscape:groupmode="layer"
     id="layer1"><rect
       style="mix-blend-mode:normal;fill:url(#radialGradient5);fill-opacity:1;fill-rule:nonzero;stroke-width:0.166915;stroke-dasharray:none"
       id="rect1"
       width="40.941486"
       height="40.941486"
       x="20"
       y="30.660851"
       ry="4.7115316"
       rx="4.7115316" /><g
       id="g3052"
       transform="matrix(0.01456749,0,0,0.01456749,48.130399,56.64186)"
       style="filter:url(#filter76)"><path
         style="fill:#326ce5;fill-opacity:1;stroke:#ffffff;stroke-width:0;stroke-miterlimit:4;stroke-dasharray:none;stroke-opacity:1"
         d="m 365.3125,184.8125 a 46.724621,46.342246 0 0 0 -17.90625,4.53125 l -244.34375,116.75 a 46.724621,46.342246 0 0 0 -25.28125,31.4375 L 17.5,599.78125 A 46.724621,46.342246 0 0 0 23.84375,635.3125 46.724621,46.342246 0 0 0 26.5,639 l 169.125,210.28125 a 46.724621,46.342246 0 0 0 36.53125,17.4375 L 503.375,866.65625 A 46.724621,46.342246 0 0 0 539.90625,849.25 L 708.96875,638.9375 A 46.724621,46.342246 0 0 0 718,599.71875 l -60.375,-262.25 a 46.724621,46.342246 0 0 0 -25.28125,-31.4375 l -244.375,-116.6875 A 46.724621,46.342246 0 0 0 365.3125,184.8125 Z"
         id="path3055"
         inkscape:connector-curvature="0"
         inkscape:export-filename="new.png"
         inkscape:export-xdpi="250.55"
         inkscape:export-ydpi="250.55" /></g><g
       id="g76"
       transform="matrix(1.247426,0,0,1.247426,10.119413,69.316762)"><path
         id="rect76"
         style="fill:#000000;fill-opacity:1;fill-rule:nonzero;stroke-width:0.264999;stroke-dasharray:none"
         d="m 17.831351,-24.051813 0,5.947081 a 0.52624635,0.52624635 135 0 1 -0.526246,0.526246 h -5.947598 a 0.52624635,0.52624635 135 0 0 -0.526246,0.526246 v 4.947658 a 0.52624635,0.52624635 45 0 0 0.526246,0.526246 h 5.947598 a 0.52624635,0.52624635 45 0 1 0.526246,0.526246 v 5.9475975 a 0.52624635,0.52624635 45 0 0 0.526246,0.5262463 h 4.947658 a 0.52624635,0.52624635 135 0 0 0.526246,-0.5262463 l 0,-5.9475975 a 0.52624635,0.52624635 135 0 1 0.526246,-0.526246 h 5.947081 a 0.52624635,0.52624635 135 0 0 0.526246,-0.526246 v -4.947658 a 0.52624635,0.52624635 45 0 0 -0.526246,-0.526246 h -5.947081 a 0.52624635,0.52624635 45 0 1 -0.526246,-0.526246 v -5.947081 a 0.52624635,0.52624635 45 0 0 -0.526246,-0.526246 l -4.947658,0 a 0.52624635,0.52624635 135 0 0 -0.526246,0.526246 z"
         inkscape:path-effect="#path-effect76"
         inkscape:original-d="m 17.831351,-24.578059 v 6.999573 h -7.00009 v 6.00015 h 7.00009 v 7.0000898 h 6.00015 v -7.0000898 h 6.999573 v -6.00015 h -6.999573 v -6.999573 z" /><circle
         style="fill:#000000;fill-opacity:1;fill-rule:nonzero;stroke-width:0.264999;stroke-dasharray:none"
         id="path76"
         cx="34.331074"
         cy="-21.078058"
         r="3.5" /><circle
         style="fill:#000000;fill-opacity:1;fill-rule:nonzero;stroke-width:0.264999;stroke-dasharray:none"
         id="path76-2"
         cx="34.331074"
         cy="-8.0782461"
         r="3.5" /></g><path
       style="font-weight:bold;font-size:70.5556px;font-family:'Source Code Pro';-inkscape-font-specification:'Source Code Pro, Bold';stroke-width:0.166915"
       d="M 71.964233,63.552796 H 91.607065 V 58.042138 H 78.541471 V 51.37602 h 10.71023 V 45.909803 H 78.541471 V 40.088059 H 91.16266 V 34.577401 H 71.964233 Z m 34.333517,0.533289 c 7.06609,0 10.84355,-3.110855 10.84355,-7.110526 0,-3.599704 -1.86651,-5.510658 -8.66595,-7.066085 -3.73303,-0.844375 -5.11069,-1.11102 -5.11069,-2.355362 0,-1.022138 1.02213,-1.733191 3.06641,-1.733191 2.44425,0 4.97737,0.755494 7.19941,2.088717 l 2.93309,-3.910789 c -2.31092,-1.466546 -5.59954,-3.021974 -9.55477,-3.021974 -6.26615,0 -10.132497,2.79977 -10.132497,6.888322 0,3.421941 2.399801,5.59954 8.399307,6.888323 4.31076,0.933256 5.42178,1.377664 5.42178,2.622006 0,1.066579 -1.11102,1.866514 -3.51082,1.866514 -3.1553,0 -6.17727,-0.933257 -8.888161,-2.622007 l -2.799774,4.088553 c 2.799774,1.866513 6.843885,3.377499 10.799115,3.377499 z m 16.18426,7.643816 h 6.53279 v -6.443914 l -0.31108,-3.599704 h 0.17776 c 1.55543,1.555428 3.46638,2.399802 5.42178,2.399802 4.93293,0 9.55477,-4.355197 9.55477,-11.910131 0,-6.799441 -3.33306,-11.199079 -8.84372,-11.199079 -2.35536,0 -4.79961,1.15546 -6.57723,2.755329 h -0.13333 l -0.48885,-2.22204 h -5.33289 z m 10.31026,-12.97671 c -1.11102,0 -2.53312,-0.399967 -3.77747,-1.466546 v -8.932599 c 1.37767,-1.422105 2.66645,-2.044276 4.08856,-2.044276 2.75532,0 4.04411,1.999835 4.04411,5.955066 0,4.53296 -1.91096,6.488355 -4.3552,6.488355 z M 158.9725,45.954243 c 2.53313,0 4.04411,1.422106 4.3552,4.132994 h -9.42145 c 0.66661,-2.755329 2.48868,-4.132994 5.06625,-4.132994 z m 0.53329,18.131842 c 2.93309,0 6.22171,-0.977697 8.75484,-2.577565 l -2.1776,-3.95523 c -1.9554,1.022138 -3.68859,1.555427 -5.68842,1.555427 -3.59971,0 -5.95507,-1.422105 -6.57724,-4.621842 h 15.02099 c 0.0889,-0.533289 0.31108,-1.733191 0.31108,-2.933092 0,-5.999507 -3.5997,-10.576908 -10.39914,-10.576908 -5.91063,0 -11.46573,4.310756 -11.46573,11.554606 0,7.33273 5.3329,11.554604 12.22122,11.554604 z m 18.97762,8.177106 c 7.99934,0 10.22138,-4.666283 10.22138,-10.043619 V 41.510164 h -15.37651 v 5.110691 h 8.84371 v 15.865362 c 0,3.199737 -0.93325,4.666283 -4.08855,4.666283 -1.28878,0 -2.71089,-0.266645 -4.48852,-1.066579 l -1.91095,4.666283 c 1.91095,0.888816 4.08855,1.510987 6.79944,1.510987 z m 6.66612,-34.219408 c 2.53312,0 4.35519,-1.555428 4.35519,-3.955231 C 189.50472,31.68875 187.68265,30 185.14953,30 c -2.53313,0 -4.3552,1.68875 -4.3552,4.088552 0,2.399803 1.82207,3.955231 4.3552,3.955231 z m 19.18794,26.042302 c 5.82174,0 11.24352,-4.221874 11.24352,-11.554604 0,-7.332731 -5.42178,-11.554606 -11.24352,-11.554606 -5.82174,0 -11.24353,4.221875 -11.24353,11.554606 0,7.33273 5.42179,11.554604 11.24353,11.554604 z m 0,-5.288453 c -3.02198,0 -4.53296,-2.444244 -4.53296,-6.266151 0,-3.821908 1.51098,-6.266152 4.53296,-6.266152 3.02197,0 4.53296,2.444244 4.53296,6.266152 0,3.821907 -1.51099,6.266151 -4.53296,6.266151 z m 28.88791,5.288453 c 2.93309,0 5.24401,-0.62217 7.19941,-1.199901 l -1.15547,-4.710724 c -1.33322,0.444408 -2.71088,0.799935 -4.3552,0.799935 -3.24417,0 -4.66628,-1.288783 -4.66628,-4.621843 v -7.732697 h 9.33257 v -5.110691 h -9.33257 v -6.755 h -5.37734 l -0.84437,6.755 -5.86618,0.266645 v 4.844046 h 5.5551 v 7.777139 c 0,5.777302 2.48868,9.688091 9.51033,9.688091 z m 22.15674,-18.131842 c 2.53312,0 4.04411,1.422106 4.35519,4.132994 h -9.42145 c 0.66661,-2.755329 2.48869,-4.132994 5.06626,-4.132994 z m 0.53328,18.131842 c 2.93309,0 6.22171,-0.977697 8.75484,-2.577565 l -2.1776,-3.95523 c -1.95539,1.022138 -3.68858,1.555427 -5.68842,1.555427 -3.59971,0 -5.95506,-1.422105 -6.57724,-4.621842 h 15.02099 c 0.0889,-0.533289 0.31108,-1.733191 0.31108,-2.933092 0,-5.999507 -3.5997,-10.576908 -10.39914,-10.576908 -5.91063,0 -11.46573,4.310756 -11.46573,11.554606 0,7.33273 5.3329,11.554604 12.22122,11.554604 z"
       id="text88"
       aria-label="Espejote" /><text
       xml:space="preserve"
       style="font-style:normal;font-variant:normal;font-weight:normal;font-stretch:normal;font-size:12.9017px;font-family:Helvetica;-inkscape-font-specification:'Helvetica, Normal';font-variant-ligatures:normal;font-variant-caps:normal;font-variant-numeric:normal;font-variant-east-asian:normal;text-align:start;writing-mode:lr-tb;direction:ltr;text-anchor:start;white-space:pre;inline-size:374.051;display:inline;fill:#333333;fill-opacity:1;stroke-width:0.023"
       x="94.6035"
       y="132.5582"
       id="text1"
       transform="matrix(0.96898313,0,0,1,-71.669211,-19.54713)"><tspan
         x="94.6035"
         y="132.5582"
         id="tspan2">Espejote (‘big mirror’ in Spanish) manages arbitrary resources in </tspan><tspan
         x="94.6035"
         y="148.68533"
         id="tspan3">a Kubernetes cluster. Built from the ground up to take advantage </tspan><tspan
         x="94.6035"
         y="164.81245"
         id="tspan4">of Server Side Apply and Jsonnet templating.
</tspan></text><text
       xml:space="preserve"
       transform="scale(0.26458333)"
       id="text6"
       style="font-style:normal;font-variant:normal;font-weight:normal;font-stretch:normal;font-size:53.3333px;font-family:Helvetica;-inkscape-font-specification:'Helvetica, Normal';font-variant-ligatures:normal;font-variant-caps:normal;font-variant-numeric:normal;font-variant-east-asian:normal;text-align:start;writing-mode:lr-tb;direction:ltr;white-space:pre;shape-inside:url(#rect6);display:inline;fill:#000000;fill-opacity:1;stroke-width:0.0869291" /><rect
       style="fill:url(#linearGradient8);fill-opacity:1;stroke-width:0.023"
       id="rect7"
       width="400"
       height="20"
       x="3.5527137e-15"
       y="180"
       rx="0"
       ry="0" /></g><path
     fill-rule="evenodd"
     clip-rule="evenodd"
     d="M 370.00828,30 C 364.47395,30 360,34.506941 360,40.082642 c 0,4.456955 2.86661,8.229675 6.84338,9.56496 0.49719,0.100381 0.67931,-0.216949 0.67931,-0.483883 0,-0.233746 -0.0164,-1.034957 -0.0164,-1.869765 -2.78406,0.601061 -3.36381,-1.20192 -3.36381,-1.20192 -0.44742,-1.168527 -1.11035,-1.468853 -1.11035,-1.468853 -0.91122,-0.617656 0.0664,-0.617656 0.0664,-0.617656 1.01078,0.06678 1.54117,1.034957 1.54117,1.034957 0.89463,1.535639 2.33624,1.101743 2.91619,0.834604 0.0828,-0.651048 0.34806,-1.101742 0.62975,-1.352082 -2.22049,-0.233747 -4.55672,-1.101743 -4.55672,-4.974639 0,-1.101743 0.39743,-2.003131 1.02717,-2.704164 -0.0994,-0.250341 -0.44742,-1.285503 0.0996,-2.670978 0,0 0.84505,-0.26714 2.75046,1.034958 a 9.6223199,9.6223199 0 0 1 2.50218,-0.333924 c 0.84505,0 1.70649,0.116976 2.50196,0.333924 1.90562,-1.302098 2.75067,-1.034958 2.75067,-1.034958 0.54699,1.385475 0.19872,2.420637 0.0994,2.670978 0.64634,0.701033 1.02738,1.602421 1.02738,2.704164 0,3.872896 -2.33624,4.724093 -4.57332,4.974639 0.36466,0.317125 0.67932,0.917982 0.67932,1.869561 0,1.352082 -0.0164,2.437231 -0.0164,2.770949 0,0.267139 0.18233,0.584469 0.67932,0.484292 3.97676,-1.335693 6.84338,-5.108209 6.84338,-9.565164 C 380.0163,34.506941 375.52593,30 370.00821,30 Z"
     fill="#24292f"
     id="path1"
     style="fill:#24292f;fill-opacity:0.322368;stroke-width:0.204861" /><rect
     style="mix-blend-mode:normal;fill:url(#linearGradient4-5);fill-opacity:1;fill-rule:nonzero;stroke-width:0.364651;stroke-dasharray:none"
     id="rect1-3"
     width="400"
     height="20"
     x="0.0033337097"
     y="180"
     ry="0"
     rx="0" /></svg>
