<?xml version="1.0" encoding="UTF-8" standalone="no"?>
<!-- Created with Inkscape (http://www.inkscape.org/) -->

<svg
   width="65.000008mm"
   height="65mm"
   viewBox="0 0 65.000008 65"
   version="1.1"
   id="svg1"
   xml:space="preserve"
   xmlns:xlink="http://www.w3.org/1999/xlink"
   xmlns="http://www.w3.org/2000/svg"
   xmlns:svg="http://www.w3.org/2000/svg"><defs
     id="defs1"><linearGradient
       id="linearGradient4"><stop
         style="stop-color:#87cdde;stop-opacity:1;"
         offset="0"
         id="stop4" /><stop
         style="stop-color:#a687de;stop-opacity:1;"
         offset="1"
         id="stop5" /></linearGradient><linearGradient
       id="swatch1"><stop
         style="stop-color:#87aade;stop-opacity:1;"
         offset="0"
         id="stop1" /></linearGradient><radialGradient
       xlink:href="#linearGradient4"
       id="radialGradient5"
       cx="31.686747"
       cy="33.493977"
       fx="31.686747"
       fy="33.493977"
       r="32.5"
       gradientUnits="userSpaceOnUse"
       spreadMethod="pad" /><filter
       style="color-interpolation-filters:sRGB"
       id="filter76"
       x="-0.22801316"
       y="-0.23499409"
       width="1.4560263"
       height="1.4699882"><feGaussianBlur
         stdDeviation="56.774193548387096"
         result="fbSourceGraphic"
         id="feGaussianBlur75" /><feGaussianBlur
         stdDeviation="10"
         in="SourceGraphic"
         result="result1"
         id="feGaussianBlur76" /><feComposite
         in2="result1"
         operator="arithmetic"
         in="fbSourceGraphic"
         k2="0.5"
         k3="0.5"
         result="result2"
         id="feComposite76"
         k1="0"
         k4="0" /><feBlend
         in2="fbSourceGraphic"
         mode="normal"
         result="result3"
         id="feBlend76" /></filter></defs><g
     id="layer1"
     transform="translate(-17.500001,-17.5)"><rect
       style="mix-blend-mode:normal;fill:url(#radialGradient5);fill-opacity:1;fill-rule:nonzero;stroke-width:0.265;stroke-dasharray:none"
       id="rect1"
       width="65"
       height="65"
       x="17.5"
       y="17.5"
       ry="7.4801769"
       rx="7.4801769" /><g
       id="g3052"
       transform="matrix(0.02312781,0,0,0.02312781,62.160711,58.74827)"
       style="filter:url(#filter76)"><path
         style="fill:#326ce5;fill-opacity:1;stroke:#ffffff;stroke-width:0;stroke-miterlimit:4;stroke-dasharray:none;stroke-opacity:1"
         d="m 365.3125,184.8125 a 46.724621,46.342246 0 0 0 -17.90625,4.53125 l -244.34375,116.75 a 46.724621,46.342246 0 0 0 -25.28125,31.4375 L 17.5,599.78125 A 46.724621,46.342246 0 0 0 23.84375,635.3125 46.724621,46.342246 0 0 0 26.5,639 l 169.125,210.28125 a 46.724621,46.342246 0 0 0 36.53125,17.4375 L 503.375,866.65625 A 46.724621,46.342246 0 0 0 539.90625,849.25 L 708.96875,638.9375 A 46.724621,46.342246 0 0 0 718,599.71875 l -60.375,-262.25 a 46.724621,46.342246 0 0 0 -25.28125,-31.4375 l -244.375,-116.6875 A 46.724621,46.342246 0 0 0 365.3125,184.8125 Z"
         id="path3055" /></g><g
       id="g76"
       transform="matrix(1.9804529,0,0,1.9804529,1.813269,78.871345)"><path
         id="rect76"
         style="fill:#ffffff;fill-opacity:1;fill-rule:nonzero;stroke-width:0.264999;stroke-dasharray:none"
         d="m 17.831351,-24.051813 0,5.947081 a 0.52624635,0.52624635 135 0 1 -0.526246,0.526246 h -5.947598 a 0.52624635,0.52624635 135 0 0 -0.526246,0.526246 v 4.947658 a 0.52624635,0.52624635 45 0 0 0.526246,0.526246 h 5.947598 a 0.52624635,0.52624635 45 0 1 0.526246,0.526246 v 5.9475975 a 0.52624635,0.52624635 45 0 0 0.526246,0.5262463 h 4.947658 a 0.52624635,0.52624635 135 0 0 0.526246,-0.5262463 l 0,-5.9475975 a 0.52624635,0.52624635 135 0 1 0.526246,-0.526246 h 5.947081 a 0.52624635,0.52624635 135 0 0 0.526246,-0.526246 v -4.947658 a 0.52624635,0.52624635 45 0 0 -0.526246,-0.526246 h -5.947081 a 0.52624635,0.52624635 45 0 1 -0.526246,-0.526246 v -5.947081 a 0.52624635,0.52624635 45 0 0 -0.526246,-0.526246 l -4.947658,0 a 0.52624635,0.52624635 135 0 0 -0.526246,0.526246 z" /><circle
         style="fill:#ffffff;fill-opacity:1;fill-rule:nonzero;stroke-width:0.264999;stroke-dasharray:none"
         id="path76"
         cx="34.331074"
         cy="-21.078058"
         r="3.5" /><circle
         style="fill:#ffffff;fill-opacity:1;fill-rule:nonzero;stroke-width:0.264999;stroke-dasharray:none"
         id="path76-2"
         cx="34.331074"
         cy="-8.0782461"
         r="3.5" /></g></g></svg>
